<svg xmlns="http://www.w3.org/2000/svg" viewBox="0 0 330.04 306.26" height="128"
     width="128">
    <defs>
        <style>.cls-1{fill:#f9cc05;}.cls-2,.cls-3{fill:#fff;}.cls-3{font-size:24.42px;font-family:Lato-Regular,
            Lato;letter-spacing:0.51em;}.cls-4{letter-spacing:0.55em;}.cls-5{letter-spacing:0.48em;}
        </style>
    </defs>
    <path class="cls-1"
          d="M276.22,295.33q2.53,6.66,10.14,10.13a21.94,21.94,0,0,0,16.24.91c-6.35-8.5-15.12-12.19-26.38-11Z"
          transform="translate(-94.79 -78.44)"/>
    <path class="cls-1"
          d="M295.78,292.55q2.69,5.61,12.21,7.75c6.49,1.4,11.75.67,15.77-2.29-2.91-3.19-7-5.41-12.16-6.63a24.58,24.58,0,0,0-15.82,1.17Z"
          transform="translate(-94.79 -78.44)"/>
    <path class="cls-1"
          d="M314.71,285.57c2.5,3.56,7.26,5.41,14.35,5.6,7.33.09,12-1.77,14.17-5.6-3.75-2.49-8.45-3.73-14.17-3.73s-10.52,1.24-14.35,3.73Z"
          transform="translate(-94.79 -78.44)"/>
    <path class="cls-1"
          d="M296.45,275.27c-11.44,3.56-18.16,10.23-20.23,20.11a25.29,25.29,0,0,0,14.59-6.51,17.21,17.21,0,0,0,5.64-13.6Z"
          transform="translate(-94.79 -78.44)"/>
    <path class="cls-1" d="M295.75,292.6q15-4.58,17.43-22.92-15.63,3.68-17.43,22.92Z"
          transform="translate(-94.79 -78.44)"/>
    <path class="cls-1"
          d="M332.69,275.84a27.28,27.28,0,0,0,16.2,1.33q8.83-1.73,11.65-7.61a26.43,26.43,0,0,0-16-1.17c-5.71,1.21-9.64,3.73-11.81,7.45Z"
          transform="translate(-94.79 -78.44)"/>
    <path class="cls-1" d="M314.69,285.63q5.74-1.68,9.86-9.3c3.08-5.71,3.47-11.17,1.25-16.39q-14.34,11.18-11.11,25.69Z"
          transform="translate(-94.79 -78.44)"/>
    <path class="cls-1" d="M346.05,262.67q19.47,1.86,26.52-11.05a25.38,25.38,0,0,0-16.46,1.31,20,20,0,0,0-10.06,9.74Z"
          transform="translate(-94.79 -78.44)"/>
    <path class="cls-1"
          d="M332.75,275.92a27.49,27.49,0,0,0,6.67-11.58,23.18,23.18,0,0,0-.36-15.45c-4,1.31-6.87,5.18-8.47,11.6s-1,11.6,2.16,15.43Z"
          transform="translate(-94.79 -78.44)"/>
    <path class="cls-1"
          d="M347.32,235c-2.82,2.86-4.39,7.34-4.66,13.48s.73,10.77,3.35,14.23c3.55-2.17,5.58-6.69,6-13.48s-1.15-11.46-4.72-14.23Z"
          transform="translate(-94.79 -78.44)"/>
    <path class="cls-1" d="M359.17,247.55q19-1.1,23.74-16c-12.8.55-20.66,5.87-23.74,16Z"
          transform="translate(-94.79 -78.44)"/>
    <path class="cls-1"
          d="M359.27,247.52A29.28,29.28,0,0,0,361,231.81c-1-6.14-3.2-10.13-6.67-12-2.6,4.2-3.4,9.33-2.29,15.48s3.48,10.29,7.23,12.24Z"
          transform="translate(-94.79 -78.44)"/>
    <path class="cls-1" d="M367.51,230.19q17.14-2.52,20.9-19.47c-10.88,1.27-17.88,7.73-20.9,19.47Z"
          transform="translate(-94.79 -78.44)"/>
    <path class="cls-1"
          d="M367.59,230.23a27.32,27.32,0,0,0-1-16.71,18.36,18.36,0,0,0-8.83-10.36c-2.42,11.64.81,20.65,9.79,27.07Z"
          transform="translate(-94.79 -78.44)"/>
    <path class="cls-1"
          d="M358.5,186.49c-.66,6.38.63,11.83,3.82,16.39a20.29,20.29,0,0,0,10.88,7.87c-.08-11.83-5-19.92-14.7-24.26Z"
          transform="translate(-94.79 -78.44)"/>
    <path class="cls-1"
          d="M373.11,210.76a25.36,25.36,0,0,0,12.29-8.42,18.3,18.3,0,0,0,3.81-15.2c-10.3,5.32-15.64,13.21-16.1,23.62Z"
          transform="translate(-94.79 -78.44)"/>
    <path class="cls-1" d="M355.8,169.81c.81,11.64,7,18.79,18.73,21.48-1.78-11.49-8-18.62-18.73-21.48Z"
          transform="translate(-94.79 -78.44)"/>
    <path class="cls-1"
          d="M374.43,191.31A19.88,19.88,0,0,0,384.75,182,22.76,22.76,0,0,0,387,166.38c-4,1-7.22,3.73-9.64,8.25a31.44,31.44,0,0,0-2.92,16.68Z"
          transform="translate(-94.79 -78.44)"/>
    <path class="cls-1"
          d="M349.48,154.52A26.48,26.48,0,0,0,357.66,167a18.8,18.8,0,0,0,14.73,4.13q-7.89-16.44-22.91-16.64Z"
          transform="translate(-94.79 -78.44)"/>
    <path class="cls-1" d="M341.07,140q5.06,13.72,25.14,13.87-6-14.82-25.14-13.87Z"
          transform="translate(-94.79 -78.44)"/>
    <path class="cls-1"
          d="M377.82,143.54c-3.2,2.77-5.52,6.78-6.95,12.15-1.51,6-1,11.23,1.47,15.56,3.47-2.38,6-6.46,7.62-12.24,1.71-6.42,1-11.55-2.14-15.47Z"
          transform="translate(-94.79 -78.44)"/>
    <path class="cls-1" d="M329.28,128.89q10,11.76,27.83,7.61c-2.05-4.1-6-7.06-11.93-8.91-6.22-2-11.52-1.52-15.9,1.3Z"
          transform="translate(-94.79 -78.44)"/>
    <path class="cls-1"
          d="M367.52,125.54c-2.74,3.16-4.31,7.72-4.59,13.68s.74,10.87,3.26,14.7c3.65-2.41,5.71-7,6.13-13.73.36-6.93-1.25-11.83-4.8-14.65Z"
          transform="translate(-94.79 -78.44)"/>
    <path class="cls-1"
          d="M316,118.49c2.5,3.14,7.12,5,13.93,5.63,7.05.51,11.89-.91,14.59-4.28a27,27,0,0,0-14.09-5.09q-9.22-.9-14.43,3.74Z"
          transform="translate(-94.79 -78.44)"/>
    <path class="cls-1"
          d="M300.6,111.56c4.12,2.41,9.32,3.23,15.68,2.55s10.66-2.73,13-6c-4-2.86-9.19-3.85-15.56-3s-10.6,3-13.12,6.51Z"
          transform="translate(-94.79 -78.44)"/>
    <path class="cls-1"
          d="M357.13,136.49a27.57,27.57,0,0,0,1.75-16c-1-6-3.16-10.13-6.59-12.38-2.66,4.29-3.44,9.56-2.25,15.84s3.44,10.43,7.09,12.56Z"
          transform="translate(-94.79 -78.44)"/>
    <path class="cls-1"
          d="M284.64,107.3a25.49,25.49,0,0,0,16.23-.23c5.16-1.74,8.84-4.61,11-8.71a29.28,29.28,0,0,0-16.31.41c-5.23,1.61-8.84,4.47-10.9,8.53Z"
          transform="translate(-94.79 -78.44)"/>
    <path class="cls-1"
          d="M344.5,119.91a28.51,28.51,0,0,0-.81-16.44c-1.89-5-4.84-8.27-9-10a25.7,25.7,0,0,0,1,16.09,20.69,20.69,0,0,0,8.73,10.3Z"
          transform="translate(-94.79 -78.44)"/>
    <path class="cls-1"
          d="M311.83,98.36a26.43,26.43,0,0,0-6.26-12.76,20,20,0,0,0-14.35-7.16,28,28,0,0,0,6.27,12.64,20.87,20.87,0,0,0,14.34,7.28Z"
          transform="translate(-94.79 -78.44)"/>
    <path class="cls-1" d="M329.27,108.16c.36-12.1-4.48-20.37-14.59-24.93-.73,11.18,4.18,19.52,14.59,24.93Z"
          transform="translate(-94.79 -78.44)"/>
    <path class="cls-1"
          d="M243.31,295.33q-16.87-1.72-26.37,11a21.92,21.92,0,0,0,16.23-.91c5.06-2.32,8.46-5.69,10.14-10.13Z"
          transform="translate(-94.79 -78.44)"/>
    <path class="cls-1"
          d="M223.76,292.55a24.59,24.59,0,0,0-15.82-1.17c-5.18,1.22-9.25,3.44-12.17,6.63,4,3,9.29,3.69,15.78,2.29s10.42-4,12.21-7.75Z"
          transform="translate(-94.79 -78.44)"/>
    <path class="cls-1"
          d="M204.82,285.57c-3.83-2.49-8.63-3.73-14.35-3.73s-10.42,1.24-14.17,3.73c2.14,3.83,6.85,5.69,14.17,5.6,7.09-.19,11.85-2,14.35-5.6Z"
          transform="translate(-94.79 -78.44)"/>
    <path class="cls-1"
          d="M223.09,275.27a17.2,17.2,0,0,0,5.63,13.6,25.35,25.35,0,0,0,14.59,6.51c-2.06-9.88-8.79-16.55-20.22-20.11Z"
          transform="translate(-94.79 -78.44)"/>
    <path class="cls-1" d="M223.78,292.6q-1.78-19.25-17.43-22.92,2.42,18.36,17.43,22.92Z"
          transform="translate(-94.79 -78.44)"/>
    <path class="cls-1"
          d="M186.84,275.84c-2.16-3.72-6.09-6.24-11.81-7.45a26.4,26.4,0,0,0-16,1.17q2.79,5.88,11.65,7.61a27.24,27.24,0,0,0,16.19-1.33Z"
          transform="translate(-94.79 -78.44)"/>
    <path class="cls-1" d="M204.85,285.63q3.24-14.5-11.12-25.69c-2.22,5.22-1.83,10.68,1.25,16.39q4.11,7.64,9.87,9.3Z"
          transform="translate(-94.79 -78.44)"/>
    <path class="cls-1" d="M173.49,262.67a20.05,20.05,0,0,0-10.07-9.74A25.36,25.36,0,0,0,147,251.62q7,12.9,26.52,11.05Z"
          transform="translate(-94.79 -78.44)"/>
    <path class="cls-1"
          d="M186.78,275.92q4.68-5.75,2.17-15.43c-1.61-6.42-4.45-10.29-8.48-11.6a23.31,23.31,0,0,0-.36,15.45,27.6,27.6,0,0,0,6.67,11.58Z"
          transform="translate(-94.79 -78.44)"/>
    <path class="cls-1"
          d="M172.22,235c-3.58,2.77-5.19,7.52-4.73,14.23s2.48,11.31,6,13.48c2.63-3.46,3.72-8.18,3.36-14.23S175,237.86,172.22,235Z"
          transform="translate(-94.79 -78.44)"/>
    <path class="cls-1" d="M160.36,247.55c-3.08-10.15-10.94-15.47-23.74-16q4.74,15,23.74,16Z"
          transform="translate(-94.79 -78.44)"/>
    <path class="cls-1"
          d="M160.27,247.52c3.75-2,6.17-6,7.22-12.24s.32-11.28-2.28-15.48c-3.48,1.88-5.72,5.87-6.67,12a29.18,29.18,0,0,0,1.73,15.71Z"
          transform="translate(-94.79 -78.44)"/>
    <path class="cls-1" d="M152,230.19c-3-11.74-10-18.2-20.91-19.47q3.78,16.92,20.91,19.47Z"
          transform="translate(-94.79 -78.44)"/>
    <path class="cls-1" d="M152,230.23q13.45-9.63,9.78-27.07a18.43,18.43,0,0,0-8.83,10.36,27.32,27.32,0,0,0-1,16.71Z"
          transform="translate(-94.79 -78.44)"/>
    <path class="cls-1"
          d="M161,186.49c-9.68,4.34-14.63,12.43-14.71,24.26a20.26,20.26,0,0,0,10.88-7.87c3.2-4.56,4.49-10,3.83-16.39Z"
          transform="translate(-94.79 -78.44)"/>
    <path class="cls-1"
          d="M146.42,210.76c-.45-10.41-5.79-18.3-16.1-23.62a18.3,18.3,0,0,0,3.81,15.2,25.36,25.36,0,0,0,12.29,8.42Z"
          transform="translate(-94.79 -78.44)"/>
    <path class="cls-1" d="M163.74,169.81c-10.7,2.86-17,10-18.74,21.48,11.71-2.69,17.93-9.84,18.74-21.48Z"
          transform="translate(-94.79 -78.44)"/>
    <path class="cls-1"
          d="M145.11,191.31a31.54,31.54,0,0,0-2.92-16.68c-2.42-4.52-5.62-7.29-9.65-8.25A22.81,22.81,0,0,0,134.78,182a19.93,19.93,0,0,0,10.33,9.32Z"
          transform="translate(-94.79 -78.44)"/>
    <path class="cls-1" d="M170.05,154.52q-15,.21-22.9,16.64A18.81,18.81,0,0,0,161.88,167a26.39,26.39,0,0,0,8.17-12.51Z"
          transform="translate(-94.79 -78.44)"/>
    <path class="cls-1" d="M178.47,140q-19.15-1-25.15,13.87,20.1-.14,25.15-13.87Z"
          transform="translate(-94.79 -78.44)"/>
    <path class="cls-1"
          d="M141.72,143.54c-3.16,3.92-3.85,9.05-2.15,15.47,1.59,5.78,4.15,9.86,7.62,12.24,2.49-4.33,3-9.56,1.47-15.56-1.42-5.37-3.75-9.38-6.94-12.15Z"
          transform="translate(-94.79 -78.44)"/>
    <path class="cls-1"
          d="M190.26,128.89c-4.39-2.82-9.69-3.28-15.9-1.3-5.89,1.85-9.88,4.81-11.93,8.91q17.81,4.17,27.83-7.61Z"
          transform="translate(-94.79 -78.44)"/>
    <path class="cls-1"
          d="M152,125.54c-3.55,2.82-5.16,7.72-4.8,14.65.41,6.71,2.48,11.32,6.13,13.73,2.52-3.83,3.57-8.74,3.25-14.7s-1.84-10.52-4.58-13.68Z"
          transform="translate(-94.79 -78.44)"/>
    <path class="cls-1"
          d="M203.52,118.49q-5.22-4.65-14.43-3.74a27,27,0,0,0-14.1,5.09c2.7,3.37,7.55,4.79,14.59,4.28,6.81-.64,11.44-2.49,13.94-5.63Z"
          transform="translate(-94.79 -78.44)"/>
    <path class="cls-1"
          d="M218.94,111.56c-2.52-3.55-6.87-5.73-13.12-6.51s-11.53.19-15.56,3c2.34,3.28,6.69,5.3,13,6s11.55-.14,15.68-2.55Z"
          transform="translate(-94.79 -78.44)"/>
    <path class="cls-1"
          d="M162.4,136.49c3.66-2.13,6-6.33,7.09-12.56s.42-11.55-2.24-15.84c-3.44,2.25-5.58,6.33-6.59,12.38a27.58,27.58,0,0,0,1.74,16Z"
          transform="translate(-94.79 -78.44)"/>
    <path class="cls-1"
          d="M234.9,107.3c-2.07-4.06-5.68-6.92-10.9-8.53a29.29,29.29,0,0,0-16.31-.41c2.14,4.1,5.81,7,11,8.71a25.52,25.52,0,0,0,16.24.23Z"
          transform="translate(-94.79 -78.44)"/>
    <path class="cls-1"
          d="M175,119.91a20.76,20.76,0,0,0,8.74-10.3,25.7,25.7,0,0,0,1-16.09c-4.13,1.68-7.09,5-9,10a28.42,28.42,0,0,0-.82,16.44Z"
          transform="translate(-94.79 -78.44)"/>
    <path class="cls-1"
          d="M207.7,98.36A20.83,20.83,0,0,0,222,91.08a27.88,27.88,0,0,0,6.27-12.64A20.07,20.07,0,0,0,214,85.6a26.61,26.61,0,0,0-6.26,12.76Z"
          transform="translate(-94.79 -78.44)"/>
    <path class="cls-1" d="M190.26,108.16c10.42-5.41,15.32-13.75,14.59-24.93-10.1,4.56-14.95,12.83-14.59,24.93Z"
          transform="translate(-94.79 -78.44)"/>
    <path class="cls-2"
          d="M334.36,169.71H316.69l2.06-8.09h-6.22a53.9,53.9,0,0,0-107.12,0h-4.92l2.23,8.09H185.17a.81.81,0,0,0-.79,1c2,8.07,16.82,62.3,54.35,80.64h0A77.94,77.94,0,0,0,246.3,260c0,.81.7,19.62-5.46,26.58a5.79,5.79,0,0,0,.14,11.57h37.29a5.79,5.79,0,0,0,.14-11.57C272.11,279.46,273,260,273,260l-.05.05L273,260a85.89,85.89,0,0,0,7.5-8.42h0c37.8-18.16,52.68-72.71,54.71-80.81A.82.82,0,0,0,334.36,169.71Zm-17.69.1v-.05l0,.15v0Zm-6.14-8.19H269.35a38,38,0,0,1-3.24-21.47,185.56,185.56,0,0,1,40.7,7.34A51.47,51.47,0,0,1,310.53,161.62ZM272.44,286.56H246.8c1.16-1.19,4.08-5.76,4.63-21.95a49.44,49.44,0,0,0,8.53,5.77H260a83.9,83.9,0,0,0,7.8-5.79C268.36,280.79,271.28,285.37,272.44,286.56ZM242.9,161.62q-.12-1.91-.12-3.81a66.44,66.44,0,0,1,2.47-17.9c2.7-.12,5.41-.2,8.12-.2,3.6,0,7.18.11,10.76.31a39.8,39.8,0,0,0,3.07,21.6Zm-2,0h-18A43.74,43.74,0,0,0,231.6,141q5.76-.68,11.56-1a68.82,68.82,0,0,0-2.37,17.82C240.79,159.08,240.84,160.35,240.91,161.62Zm64.82-16.51a188.33,188.33,0,0,0-39.29-6.93,43,43,0,0,1,9.67-19.52A52.18,52.18,0,0,1,305.73,145.11ZM259,115.74A51.75,51.75,0,0,1,274.09,118a44.68,44.68,0,0,0-9.64,20.07c-3.68-.22-7.38-.33-11.08-.33-2.52,0-5,.07-7.54.17a66.45,66.45,0,0,1,11.91-22.13C258.15,115.76,258.56,115.74,259,115.74Zm-3.86.15A68.64,68.64,0,0,0,243.74,138q-6,.3-11.93,1c.09-1.09.15-2.18.15-3.27a40.59,40.59,0,0,0-1.63-11.31A51.62,51.62,0,0,1,255.11,115.89Zm-26.52,9.7a38.49,38.49,0,0,1,1.38,10.1c0,1.18-.06,2.35-.17,3.52q-8,1-15.88,2.67A52.37,52.37,0,0,1,228.59,125.59Zm-15.91,18.58c5.56-1.24,11.2-2.21,16.88-2.93a42.29,42.29,0,0,1-9.17,20.38h-13A51.77,51.77,0,0,1,212.68,144.17Zm19.84,97.73s-25.13-15.5-42.35-67.2a.53.53,0,0,1,.49-.7H203.9l2.16,7.84,3.33,12.09.08,0,.1.41,8.91-2.32a105.86,105.86,0,0,0,5.84,30.9c.23.68.47,1.37.72,2.06a94.46,94.46,0,0,0,7.48,16.92,0,0,0,0,0,0,0l0,0Zm42.88,3a.13.13,0,0,1-.23-.11c.63-1.91,2.05-6.4,3.66-12.89,1.16-4.72,2.42-10.52,3.54-17.13l.06-.36c.35-2.09.69-4.27,1-6.51a229.66,229.66,0,0,0,2.22-29.7,1,1,0,0,0-.67-1l-15.21-5.57a.3.3,0,0,1,.1-.57h35.37a.43.43,0,0,1,.42.54l-1.26,5.58-1.22,5.41a.44.44,0,0,1-.56.32l-1.47-.48-7.26-2.37a.74.74,0,0,0-1,.63,266,266,0,0,1-5.2,31,159.92,159.92,0,0,1-5.43,18.63A77.05,77.05,0,0,1,275.4,244.91Zm54-70.21C312.14,226.4,287,241.9,287,241.9v0A108.65,108.65,0,0,0,301.53,192l8.9,2.32.44-1.72L315.6,174h13.27A.53.53,0,0,1,329.37,174.7Z"
          transform="translate(-94.79 -78.44)"/>
    <polygon class="cls-1"
             points="5.24 118.13 13.73 112.94 22.22 118.13 19.9 108.46 27.46 101.99 17.55 101.2 13.73 92.02 9.91 101.2 0 101.99 7.56 108.46 5.24 118.13"/>
    <polygon class="cls-1"
             points="18.15 73 24.23 69.28 30.31 73 28.65 66.07 34.06 61.44 26.96 60.87 24.23 54.3 21.5 60.87 14.4 61.44 19.81 66.07 18.15 73"/>
    <polygon class="cls-1"
             points="11.62 155.85 17.7 152.14 23.77 155.85 22.12 148.93 27.53 144.29 20.43 143.73 17.7 137.15 14.97 143.73 7.87 144.29 13.28 148.93 11.62 155.85"/>
    <polygon class="cls-1"
             points="324.79 118.13 316.31 112.94 307.82 118.13 310.13 108.46 302.58 101.99 312.49 101.2 316.31 92.02 320.12 101.2 330.04 101.99 322.48 108.46 324.79 118.13"/>
    <polygon class="cls-1"
             points="311.88 73 305.81 69.28 299.73 73 301.39 66.07 295.98 61.44 303.07 60.87 305.81 54.3 308.54 60.87 315.64 61.44 310.23 66.07 311.88 73"/>
    <polygon class="cls-1"
             points="314.4 160.06 308.33 156.34 302.25 160.06 303.91 153.13 298.5 148.5 305.59 147.93 308.33 141.36 311.06 147.93 318.16 148.5 312.75 153.13 314.4 160.06"/>
    <text class="cls-3" transform="translate(49.16 272.5)">L
        <tspan class="cls-4" x="25" y="0">OC</tspan>
        <tspan class="cls-5" x="88.08" y="0">A</tspan>
        <tspan class="cls-4" x="116.5" y="0">TION</tspan>
        <tspan class="cls-4">
            <tspan x="-32.68" y="29.3">DOMIN</tspan>
            <tspan class="cls-5" x="120.76" y="29.3">A</tspan>
            <tspan x="149.19" y="29.3">TION</tspan>
        </tspan>
    </text>
</svg>