<svg width="60" height="61" viewBox="0 0 60 61" fill="none" xmlns="http://www.w3.org/2000/svg">
<path d="M52.5 25.5C52.5 43 30 58 30 58C30 58 7.5 43 7.5 25.5C7.5 19.5326 9.87053 13.8097 14.0901 9.5901C18.3097 5.37053 24.0326 3 30 3C35.9674 3 41.6903 5.37053 45.9099 9.5901C50.1295 13.8097 52.5 19.5326 52.5 25.5Z" fill="#2F6D80"/>
<path d="M30 33C34.1421 33 37.5 29.6421 37.5 25.5C37.5 21.3579 34.1421 18 30 18C25.8579 18 22.5 21.3579 22.5 25.5C22.5 29.6421 25.8579 33 30 33Z" fill="#153C64"/>
</svg>
