<svg id="Шар_1" data-name="Шар 1" xmlns="http://www.w3.org/2000/svg" viewBox="0 0 519.62 427.76"><defs><style>.cls-1{fill:#f9cc05;}.cls-2{fill:#fff;}</style></defs><path class="cls-1" d="M277.05,316.72q2.54,6.67,10.14,10.13a22,22,0,0,0,16.24.92q-9.53-12.76-26.38-11Z"/><path class="cls-1" d="M296.6,314q2.68,5.6,12.21,7.74c6.49,1.4,11.75.67,15.78-2.29a23.11,23.11,0,0,0-12.17-6.62A24.46,24.46,0,0,0,296.6,314Z"/><path class="cls-1" d="M315.54,307c2.5,3.55,7.26,5.41,14.35,5.59,7.32.09,12-1.77,14.17-5.59-3.75-2.5-8.46-3.74-14.17-3.74s-10.52,1.24-14.35,3.74Z"/><path class="cls-1" d="M297.27,296.66c-11.43,3.56-18.16,10.23-20.22,20.11a25.32,25.32,0,0,0,14.59-6.51,17.19,17.19,0,0,0,5.63-13.6Z"/><path class="cls-1" d="M296.58,314q15-4.58,17.43-22.93-15.63,3.68-17.43,22.93Z"/><path class="cls-1" d="M333.52,297.23a27.27,27.27,0,0,0,16.2,1.33q8.83-1.72,11.65-7.61a26.44,26.44,0,0,0-16-1.17c-5.72,1.22-9.65,3.74-11.81,7.45Z"/><path class="cls-1" d="M315.52,307c3.83-1.13,7.12-4.22,9.86-9.31,3.08-5.71,3.47-11.16,1.25-16.39q-14.36,11.18-11.11,25.7Z"/><path class="cls-1" d="M346.88,284.06q19.47,1.86,26.51-11.05a25.42,25.42,0,0,0-16.45,1.31,20,20,0,0,0-10.06,9.74Z"/><path class="cls-1" d="M333.58,297.31a27.6,27.6,0,0,0,6.67-11.58,23.25,23.25,0,0,0-.36-15.45c-4,1.31-6.87,5.18-8.48,11.6s-1,11.6,2.17,15.43Z"/><path class="cls-1" d="M348.15,256.39c-2.82,2.87-4.39,7.34-4.67,13.48s.74,10.77,3.36,14.23c3.55-2.17,5.57-6.69,6-13.47s-1.15-11.47-4.72-14.24Z"/><path class="cls-1" d="M360,268.94q19-1.1,23.74-16c-12.8.55-20.66,5.87-23.74,16Z"/><path class="cls-1" d="M360.09,268.91a29.09,29.09,0,0,0,1.73-15.71c-.95-6.14-3.19-10.13-6.67-12-2.6,4.2-3.39,9.33-2.28,15.48s3.47,10.29,7.22,12.24Z"/><path class="cls-1" d="M368.34,251.58c11.43-1.67,18.38-8.19,20.9-19.46-10.88,1.26-17.89,7.72-20.9,19.46Z"/><path class="cls-1" d="M368.41,251.62a27.32,27.32,0,0,0-1-16.71,18.4,18.4,0,0,0-8.83-10.36c-2.42,11.65.81,20.66,9.78,27.07Z"/><path class="cls-1" d="M359.32,207.89c-.65,6.37.64,11.83,3.83,16.39A20.19,20.19,0,0,0,374,232.14c-.08-11.83-5-19.92-14.71-24.25Z"/><path class="cls-1" d="M373.94,232.15a25.36,25.36,0,0,0,12.29-8.42A18.29,18.29,0,0,0,390,208.54c-10.3,5.31-15.64,13.2-16.1,23.61Z"/><path class="cls-1" d="M356.62,191.2c.82,11.64,7,18.8,18.74,21.48-1.79-11.49-8-18.61-18.74-21.48Z"/><path class="cls-1" d="M375.26,212.71a20,20,0,0,0,10.32-9.33,22.81,22.81,0,0,0,2.24-15.61c-4,1-7.22,3.73-9.64,8.25a31.37,31.37,0,0,0-2.92,16.69Z"/><path class="cls-1" d="M350.31,175.91a26.51,26.51,0,0,0,8.18,12.52,18.83,18.83,0,0,0,14.73,4.12q-7.89-16.43-22.91-16.64Z"/><path class="cls-1" d="M341.89,161.36Q347,175.07,367,175.22q-6-14.82-25.15-13.86Z"/><path class="cls-1" d="M378.65,164.93c-3.2,2.77-5.52,6.78-6.95,12.15-1.51,6-1,11.23,1.47,15.56,3.47-2.38,6-6.46,7.62-12.24,1.71-6.42,1-11.55-2.14-15.47Z"/><path class="cls-1" d="M330.1,150.28q10,11.76,27.83,7.61c-2-4.1-6-7.06-11.93-8.91-6.21-2-11.51-1.52-15.9,1.3Z"/><path class="cls-1" d="M368.34,146.93c-2.74,3.16-4.3,7.73-4.58,13.69s.73,10.86,3.25,14.69c3.65-2.41,5.72-7,6.14-13.73.35-6.92-1.26-11.83-4.81-14.65Z"/><path class="cls-1" d="M316.85,139.88c2.5,3.14,7.12,5,13.93,5.64,7.05.5,11.89-.92,14.59-4.29a27,27,0,0,0-14.1-5.09q-9.22-.9-14.42,3.74Z"/><path class="cls-1" d="M301.42,133c4.13,2.41,9.33,3.24,15.68,2.55s10.66-2.73,13-6c-4-2.86-9.18-3.85-15.56-3.05s-10.6,3-13.12,6.51Z"/><path class="cls-1" d="M358,157.88a27.49,27.49,0,0,0,1.74-16c-1-6.05-3.15-10.13-6.59-12.38-2.66,4.29-3.43,9.56-2.24,15.84s3.43,10.43,7.09,12.56Z"/><path class="cls-1" d="M285.46,128.69a25.52,25.52,0,0,0,16.24-.23c5.16-1.74,8.83-4.61,11-8.71a29.32,29.32,0,0,0-16.32.41c-5.22,1.61-8.83,4.47-10.9,8.53Z"/><path class="cls-1" d="M345.33,141.3a28.51,28.51,0,0,0-.81-16.44c-1.89-5-4.85-8.27-9-9.94A25.64,25.64,0,0,0,336.6,131a20.71,20.71,0,0,0,8.73,10.29Z"/><path class="cls-1" d="M312.66,119.75A26.52,26.52,0,0,0,306.4,107a20.07,20.07,0,0,0-14.35-7.16,27.78,27.78,0,0,0,6.27,12.64,20.85,20.85,0,0,0,14.34,7.28Z"/><path class="cls-1" d="M330.1,129.56c.36-12.11-4.48-20.38-14.59-24.94-.73,11.18,4.17,19.53,14.59,24.94Z"/><path class="cls-1" d="M244.14,316.72q-16.87-1.73-26.38,11a22,22,0,0,0,16.24-.92q7.59-3.47,10.14-10.13Z"/><path class="cls-1" d="M224.58,314a24.45,24.45,0,0,0-15.82-1.17c-5.18,1.21-9.25,3.43-12.16,6.62,4,3,9.29,3.69,15.78,2.29s10.42-4,12.2-7.74Z"/><path class="cls-1" d="M205.65,307c-3.83-2.5-8.63-3.74-14.35-3.74s-10.42,1.24-14.17,3.74c2.14,3.82,6.84,5.68,14.17,5.59,7.09-.18,11.85-2,14.35-5.59Z"/><path class="cls-1" d="M223.91,296.66a17.23,17.23,0,0,0,5.64,13.6,25.32,25.32,0,0,0,14.59,6.51c-2.07-9.88-8.79-16.55-20.23-20.11Z"/><path class="cls-1" d="M224.61,314q-1.79-19.26-17.43-22.93,2.41,18.36,17.43,22.93Z"/><path class="cls-1" d="M187.67,297.23c-2.16-3.71-6.09-6.23-11.81-7.45a26.43,26.43,0,0,0-16,1.17q2.81,5.88,11.65,7.61a27.27,27.27,0,0,0,16.2-1.33Z"/><path class="cls-1" d="M205.67,307q3.26-14.52-11.11-25.7c-2.22,5.23-1.83,10.68,1.25,16.39,2.74,5.09,6,8.18,9.86,9.31Z"/><path class="cls-1" d="M174.31,284.06a20,20,0,0,0-10.06-9.74A25.42,25.42,0,0,0,147.8,273q7,12.9,26.51,11.05Z"/><path class="cls-1" d="M187.61,297.31q4.68-5.74,2.17-15.43c-1.61-6.42-4.45-10.29-8.48-11.6a23.18,23.18,0,0,0-.36,15.45,27.49,27.49,0,0,0,6.67,11.58Z"/><path class="cls-1" d="M173,256.39c-3.57,2.77-5.18,7.52-4.72,14.24s2.48,11.3,6,13.47c2.62-3.46,3.71-8.18,3.36-14.23s-1.85-10.61-4.67-13.48Z"/><path class="cls-1" d="M161.19,268.94c-3.08-10.15-10.94-15.47-23.74-16q4.74,15,23.74,16Z"/><path class="cls-1" d="M161.09,268.91c3.75-2,6.18-6,7.23-12.24s.32-11.28-2.28-15.48c-3.48,1.88-5.72,5.87-6.67,12a29.18,29.18,0,0,0,1.72,15.71Z"/><path class="cls-1" d="M152.85,251.58c-3-11.74-10-18.2-20.9-19.46,2.52,11.27,9.47,17.79,20.9,19.46Z"/><path class="cls-1" d="M152.78,251.62c9-6.41,12.2-15.42,9.78-27.07a18.4,18.4,0,0,0-8.83,10.36,27.32,27.32,0,0,0-.95,16.71Z"/><path class="cls-1" d="M161.87,207.89c-9.69,4.33-14.63,12.42-14.71,24.25A20.19,20.19,0,0,0,158,224.28c3.19-4.56,4.48-10,3.83-16.39Z"/><path class="cls-1" d="M147.25,232.15c-.46-10.41-5.8-18.3-16.1-23.61A18.29,18.29,0,0,0,135,223.73a25.36,25.36,0,0,0,12.29,8.42Z"/><path class="cls-1" d="M164.57,191.2c-10.7,2.87-16.95,10-18.74,21.48,11.71-2.68,17.92-9.84,18.74-21.48Z"/><path class="cls-1" d="M145.93,212.71A31.37,31.37,0,0,0,143,196c-2.42-4.52-5.61-7.29-9.64-8.25a22.81,22.81,0,0,0,2.24,15.61,20,20,0,0,0,10.32,9.33Z"/><path class="cls-1" d="M170.88,175.91q-15,.21-22.91,16.64a18.83,18.83,0,0,0,14.73-4.12,26.51,26.51,0,0,0,8.18-12.52Z"/><path class="cls-1" d="M179.29,161.36q-19.14-1-25.14,13.86,20.08-.14,25.14-13.86Z"/><path class="cls-1" d="M142.54,164.93c-3.15,3.92-3.85,9-2.14,15.47,1.59,5.78,4.15,9.86,7.62,12.24,2.48-4.33,3-9.56,1.47-15.56-1.43-5.37-3.75-9.38-7-12.15Z"/><path class="cls-1" d="M191.08,150.28c-4.38-2.82-9.68-3.27-15.89-1.3-5.9,1.85-9.89,4.81-11.93,8.91q17.81,4.17,27.82-7.61Z"/><path class="cls-1" d="M152.85,146.93c-3.55,2.82-5.16,7.73-4.81,14.65.42,6.71,2.48,11.32,6.14,13.73,2.52-3.83,3.57-8.74,3.25-14.69s-1.84-10.53-4.58-13.69Z"/><path class="cls-1" d="M204.34,139.88q-5.21-4.65-14.43-3.74a27,27,0,0,0-14.09,5.09c2.7,3.37,7.54,4.79,14.59,4.29,6.81-.65,11.43-2.5,13.93-5.64Z"/><path class="cls-1" d="M219.77,133c-2.52-3.55-6.87-5.73-13.12-6.51s-11.54.19-15.57,3.05c2.35,3.28,6.69,5.3,13,6s11.55-.14,15.68-2.55Z"/><path class="cls-1" d="M163.23,157.88c3.65-2.13,6-6.32,7.09-12.56s.42-11.55-2.24-15.84c-3.44,2.25-5.58,6.33-6.59,12.38a27.49,27.49,0,0,0,1.74,16Z"/><path class="cls-1" d="M235.72,128.69c-2.06-4.06-5.67-6.92-10.89-8.53a29.32,29.32,0,0,0-16.32-.41c2.14,4.1,5.82,7,11,8.71a25.49,25.49,0,0,0,16.23.23Z"/><path class="cls-1" d="M175.86,141.3A20.71,20.71,0,0,0,184.59,131a25.64,25.64,0,0,0,1-16.09c-4.12,1.67-7.08,5-9,9.94a28.51,28.51,0,0,0-.81,16.44Z"/><path class="cls-1" d="M208.53,119.75a20.85,20.85,0,0,0,14.34-7.28,27.88,27.88,0,0,0,6.27-12.64A20.05,20.05,0,0,0,214.79,107a26.43,26.43,0,0,0-6.26,12.76Z"/><path class="cls-1" d="M191.09,129.56c10.42-5.41,15.32-13.76,14.59-24.94-10.11,4.56-15,12.83-14.59,24.94Z"/><path class="cls-2" d="M335.19,191.11H317.52l2.06-8.09h-6.22a53.9,53.9,0,0,0-107.13,0h-4.91l2.23,8.09H186a.82.82,0,0,0-.8,1c2,8.07,16.83,62.3,54.36,80.63h0a79.8,79.8,0,0,0,7.55,8.63c0,.8.71,19.61-5.46,26.57a5.79,5.79,0,0,0,.14,11.57h37.3a5.79,5.79,0,0,0,.13-11.57c-6.3-7.11-5.45-26.61-5.45-26.61l-.06,0,.06,0a88.5,88.5,0,0,0,7.5-8.43h0c37.79-18.16,52.68-72.71,54.7-80.8A.81.81,0,0,0,335.19,191.11Zm-17.69.09v0l0,.16v0ZM311.36,183H270.18a38,38,0,0,1-3.24-21.47,186.15,186.15,0,0,1,40.7,7.34A51.47,51.47,0,0,1,311.36,183ZM273.27,308H247.63c1.16-1.19,4.08-5.76,4.63-21.95a49.44,49.44,0,0,0,8.53,5.77l0,0h0a84,84,0,0,0,7.8-5.8C269.19,302.19,272.11,306.76,273.27,308ZM243.72,183c-.07-1.27-.11-2.54-.11-3.81a66.49,66.49,0,0,1,2.47-17.9c2.7-.12,5.41-.19,8.11-.19q5.4,0,10.77.31a38.35,38.35,0,0,0-.38,5.37A40.32,40.32,0,0,0,268,183Zm-2,0h-18a43.64,43.64,0,0,0,8.69-20.63q5.76-.67,11.57-1a68.39,68.39,0,0,0-2.37,17.82C241.62,180.47,241.67,181.74,241.74,183Zm64.82-16.51a188.45,188.45,0,0,0-39.29-6.93,43,43,0,0,1,9.67-19.52A52.21,52.21,0,0,1,306.56,166.5ZM259.8,137.13a51.8,51.8,0,0,1,15.12,2.25,44.7,44.7,0,0,0-9.65,20.07q-5.52-.33-11.08-.33c-2.51,0-5,.07-7.53.17a66.71,66.71,0,0,1,11.9-22.13C259,137.15,259.38,137.13,259.8,137.13Zm-3.86.16a68.39,68.39,0,0,0-11.37,22.08q-6,.31-11.93,1c.08-1.08.14-2.17.14-3.27a40.69,40.69,0,0,0-1.62-11.31A51.46,51.46,0,0,1,255.94,137.29ZM229.42,147a38.49,38.49,0,0,1,1.38,10.1c0,1.18-.07,2.35-.17,3.52q-8,1-15.88,2.68A52.3,52.3,0,0,1,229.42,147Zm-15.91,18.58c5.56-1.23,11.2-2.21,16.87-2.93A42.27,42.27,0,0,1,221.22,183h-13A51.61,51.61,0,0,1,213.51,165.56Zm19.84,97.73S208.22,247.8,191,196.09a.52.52,0,0,1,.49-.69h13.24l2.16,7.84,3.33,12.09.08,0,.1.41,8.9-2.32a106.19,106.19,0,0,0,5.85,30.91c.23.68.47,1.36.72,2.05a93.75,93.75,0,0,0,7.48,16.92h0l0,0Zm42.88,3a.13.13,0,0,1-.24-.11c.64-1.91,2.06-6.4,3.66-12.89,1.17-4.72,2.43-10.52,3.55-17.13l.06-.36q.53-3.13,1-6.51a229.39,229.39,0,0,0,2.22-29.7,1,1,0,0,0-.68-1l-15.2-5.57a.29.29,0,0,1,.1-.57h35.36a.43.43,0,0,1,.43.54l-1.26,5.58L304,204a.43.43,0,0,1-.56.32l-1.47-.48-7.26-2.37a.74.74,0,0,0-1,.63,268.26,268.26,0,0,1-5.2,31,163.92,163.92,0,0,1-5.43,18.63A77.05,77.05,0,0,1,276.23,266.3Zm54-70.21c-17.22,51.71-42.35,67.2-42.35,67.2l0,0,0,0a103.27,103.27,0,0,0,9.66-22,104.55,104.55,0,0,0,4.85-27.9l8.91,2.32.43-1.72,4.74-18.6H329.7A.52.52,0,0,1,330.19,196.09Z"/><polygon class="cls-1" points="100.86 217.97 109.35 212.78 117.83 217.97 115.52 208.29 123.08 201.83 113.16 201.03 109.35 191.85 105.53 201.03 95.62 201.83 103.17 208.29 100.86 217.97"/><polygon class="cls-1" points="113.77 172.83 119.85 169.12 125.92 172.83 124.27 165.9 129.68 161.27 122.58 160.71 119.85 154.13 117.11 160.71 110.02 161.27 115.43 165.9 113.77 172.83"/><polygon class="cls-1" points="107.24 255.69 113.31 251.97 119.39 255.69 117.73 248.76 123.14 244.13 116.05 243.56 113.31 236.99 110.58 243.56 103.48 244.13 108.89 248.76 107.24 255.69"/><polygon class="cls-1" points="420.41 217.97 411.92 212.78 403.44 217.97 405.75 208.29 398.19 201.83 408.11 201.03 411.92 191.85 415.74 201.03 425.65 201.83 418.1 208.29 420.41 217.97"/><polygon class="cls-1" points="407.5 172.83 401.42 169.12 395.35 172.83 397 165.9 391.59 161.27 398.69 160.71 401.42 154.13 404.15 160.71 411.25 161.27 405.84 165.9 407.5 172.83"/><polygon class="cls-1" points="410.02 259.89 403.94 256.18 397.87 259.89 399.52 252.97 394.11 248.34 401.21 247.77 403.94 241.19 406.67 247.77 413.77 248.34 408.36 252.97 410.02 259.89"/></svg>